<svg width="100" height="55" viewBox="0 0 100 55" fill="none" xmlns="http://www.w3.org/2000/svg">
<path d="M0.616 0.279999H6.216C8.98933 0.279999 11.2827 0.845332 13.096 1.976C14.9307 3.10667 16.264 4.54667 17.096 6.296C17.9493 8.04533 18.376 9.86933 18.376 11.768C18.376 13.9867 17.864 15.9493 16.84 17.656C15.8373 19.3627 14.4827 20.6853 12.776 21.624C11.0907 22.5413 9.26667 23 7.304 23H0.616V0.279999ZM6.888 21.496C8.72267 21.496 10.3867 21.1013 11.88 20.312C13.3947 19.5013 14.5893 18.36 15.464 16.888C16.3387 15.3947 16.776 13.656 16.776 11.672C16.776 9.90133 16.3707 8.26933 15.56 6.776C14.7707 5.26133 13.5973 4.056 12.04 3.16C10.4827 2.264 8.616 1.816 6.44 1.816H2.184V21.496H6.888ZM38.1945 0.279999V1.784H25.7465V10.808H36.9465V12.312H25.7465V21.496H38.6425V23H24.1785V0.279999H38.1945ZM58.632 0.279999V1.784H46.184V10.808H57.384V12.312H46.184V21.496H59.08V23H44.616V0.279999H58.632ZM70.3015 0.279999C72.4562 0.279999 74.1628 0.834665 75.4215 1.944C76.7015 3.032 77.3415 4.62133 77.3415 6.712C77.3415 7.90667 77.0855 9.016 76.5735 10.04C76.0615 11.064 75.2615 11.896 74.1735 12.536C73.1068 13.1547 71.7628 13.464 70.1415 13.464H66.6215V23H65.0535V0.279999H70.3015ZM70.1415 11.96C71.5068 11.96 72.6162 11.6827 73.4695 11.128C74.3228 10.5733 74.9202 9.90133 75.2615 9.112C75.6242 8.30133 75.8055 7.50133 75.8055 6.712C75.8055 5.24 75.3362 4.056 74.3975 3.16C73.4588 2.24267 72.1468 1.784 70.4615 1.784H66.6215V11.96H70.1415ZM14.632 32.28V33.784H2.184V42.808H13.384V44.312H2.184V53.496H15.08V55H0.616V32.28H14.632ZM33.6615 47.48H23.6455L20.6375 55H19.0695L28.6695 31.288H28.7975L38.3975 55H36.6375L33.6615 47.48ZM33.0855 46.008L28.7015 34.84L24.2215 46.008H33.0855ZM56.3833 55L50.4313 45.336C49.9833 45.4213 49.4179 45.464 48.7353 45.464H45.2153V55H43.6473V32.28H48.8313C50.0259 32.28 51.1673 32.5147 52.2553 32.984C53.3646 33.4533 54.2606 34.168 54.9433 35.128C55.6473 36.088 55.9993 37.2827 55.9993 38.712C55.9993 40.0987 55.6793 41.3573 55.0393 42.488C54.3993 43.5973 53.4073 44.408 52.0633 44.92L58.2073 55H56.3833ZM48.6393 43.96C50.7086 43.96 52.1806 43.448 53.0553 42.424C53.9513 41.4 54.3993 40.184 54.3993 38.776C54.3993 37.88 54.1753 37.048 53.7273 36.28C53.3006 35.512 52.6819 34.904 51.8713 34.456C51.0606 34.008 50.1219 33.784 49.0553 33.784H45.2153V43.96H48.6393ZM76.797 32.28V33.784H70.109V55H68.541V33.784H61.917V32.28H76.797ZM99.0418 55H97.4738V44.312H83.7778V55H82.2098V32.28H83.7778V42.84H97.4738V32.28H99.0418V55Z" fill="white"/>
</svg>
